jumper10dof24musc_withArms.osim_states
version=1
nRows=4
nColumns=101
inDegrees=yes

# SIMM Motion File Header:
name jumper10dof24musc_withArms.osim_states
datacolumns 101
datarows 4
otherdata 1
range 0.08081195 0.08230916
endheader
time	pelvis_tilt	pelvis_tx	pelvis_ty	hip_flexion_r	knee_angle_r	ankle_angle_r	hip_flexion_l	knee_angle_l	ankle_angle_l	lumbar_extension	lumbar_bending	lumbar_rotation	arm_flex_r	arm_add_r	arm_rot_r	elbow_flex_r	pro_sup_r	wrist_flex_r	wrist_dev_r	arm_flex_l	arm_add_l	arm_rot_l	elbow_flex_l	pro_sup_l	wrist_flex_l	wrist_dev_l	pelvis_tilt_u	pelvis_tx_u	pelvis_ty_u	hip_flexion_r_u	knee_angle_r_u	ankle_angle_r_u	hip_flexion_l_u	knee_angle_l_u	ankle_angle_l_u	lumbar_extension_u	lumbar_bending_u	lumbar_rotation_u	arm_flex_r_u	arm_add_r_u	arm_rot_r_u	elbow_flex_r_u	pro_sup_r_u	wrist_flex_r_u	wrist_dev_r_u	arm_flex_l_u	arm_add_l_u	arm_rot_l_u	elbow_flex_l_u	pro_sup_l_u	wrist_flex_l_u	wrist_dev_l_u	hamstrings_r.activation	hamstrings_r.fiber_length	bifemsh_r.activation	bifemsh_r.fiber_length	glut_max_r.activation	glut_max_r.fiber_length	iliopsoas_r.activation	iliopsoas_r.fiber_length	rect_fem_r.activation	rect_fem_r.fiber_length	vasti_r.activation	vasti_r.fiber_length	gastroc_r.activation	gastroc_r.fiber_length	soleus_r.activation	soleus_r.fiber_length	tib_ant_r.activation	tib_ant_r.fiber_length	ercspn_r.activation	ercspn_r.fiber_length	intobl_r.activation	intobl_r.fiber_length	extobl_r.activation	extobl_r.fiber_length	hamstrings_l.activation	hamstrings_l.fiber_length	bifemsh_l.activation	bifemsh_l.fiber_length	glut_max_l.activation	glut_max_l.fiber_length	iliopsoas_l.activation	iliopsoas_l.fiber_length	rect_fem_l.activation	rect_fem_l.fiber_length	vasti_l.activation	vasti_l.fiber_length	gastroc_l.activation	gastroc_l.fiber_length	soleus_l.activation	soleus_l.fiber_length	tib_ant_l.activation	tib_ant_l.fiber_length	ercspn_l.activation	ercspn_l.fiber_length	intobl_l.activation	intobl_l.fiber_length	extobl_l.activation	extobl_l.fiber_length
      0.08081195	    -59.95773468	     -0.03002061	      0.63756489	    120.09020919	    -84.47471376	     18.42503634	    120.28145582	    -85.45047174	     18.20079067	     32.14431027	      0.00024912	      0.00028820	     -8.45398839	     -4.00000000	     90.00000000	      0.00000000	      0.00000000	     -0.00000000	      0.00000000	     -8.45368514	     -4.00000000	     90.00000000	      0.00000000	      0.00000000	      0.00000000	      0.00000000	   -215.89368342	     -0.26346343	     -0.89233902	    311.53081697	   -117.81884025	     -6.40159287	    315.19255750	   -121.78628458	    -26.35739987	    248.33943414	      0.00351697	      0.00369534	    -42.68847808	     -0.00000000	      0.00000000	      0.00000000	      0.00000000	     -0.00000000	      0.00000000	    -42.68440352	      0.00000000	      0.00000000	     -0.00000000	      0.00000000	      0.00000000	     -0.00000000	      0.00000000	      0.14585902	      0.22321830	      0.12995603	      0.00000000	      0.14561583	      0.00000000	      0.04488545	      0.50666731	      0.07181657	      0.00000000	      0.12472478	      0.00000000	      0.08012710	      0.23321268	      0.05582948	      0.07951163	      0.06354798	      0.95456978	      0.09186476	      0.11030861	      0.12526375	      0.09150361	      0.15731849	      0.00000000	      0.14553715	      0.22321792	      0.12958637	      0.00000000	      0.14561267	      0.00000000	      0.04501254	      0.50666731	      0.07218872	      0.00000000	      0.12519270	      0.00000000	      0.07978341	      0.23321270	      0.05572709	      0.07632275	      0.06374913	      0.95456700	      0.09186520	      0.11030861	      0.12526415	      0.09150361	      0.15731893
      0.08118230	    -60.03535793	     -0.03011666	      0.63723536	    120.20360746	    -84.51897126	     18.42242567	    120.39619936	    -85.49613907	     18.19112378	     32.23334156	      0.00025042	      0.00028957	     -8.46912551	     -4.00000000	     90.00000000	      0.00000000	      0.00000000	     -0.00000000	      0.00000000	     -8.46882075	     -4.00000000	     90.00000000	      0.00000000	      0.00000000	      0.00000000	      0.00000000	   -203.37199975	     -0.25531510	     -0.88731945	    300.92200057	   -121.15340436	     -7.72137606	    304.52367666	   -124.80978128	    -25.77329229	    232.55283897	      0.00351394	      0.00370255	    -39.07816425	     -0.00000000	      0.00000000	     -0.00000000	      0.00000000	     -0.00000000	      0.00000000	    -39.07409449	      0.00000000	      0.00000000	     -0.00000000	      0.00000000	      0.00000000	     -0.00000000	      0.00000000	      0.14586148	      0.22321855	      0.12994263	      0.00000000	      0.14561394	      0.00000000	      0.04496249	      0.50634208	      0.07179473	      0.00000000	      0.12474554	      0.00000000	      0.08011251	      0.23321312	      0.05581517	      0.07946073	      0.06355693	      0.95468758	      0.09177391	      0.11030863	      0.12533511	      0.09150362	      0.15736378	      0.00000000	      0.14553925	      0.22321818	      0.12957201	      0.00000000	      0.14561042	      0.00000000	      0.04509082	      0.50634208	      0.07216940	      0.00000000	      0.12521412	      0.00000000	      0.07976611	      0.23321314	      0.05571202	      0.07629033	      0.06375982	      0.95468485	      0.09177436	      0.11030863	      0.12533551	      0.09150362	      0.15736423
      0.08179456	    -60.15380456	     -0.03026904	      0.63669442	    120.38272269	    -84.59474116	     18.41699872	    120.57748572	    -85.57402368	     18.17586391	     32.36806971	      0.00025257	      0.00029184	     -8.49129867	     -4.00000000	     90.00000000	      0.00000000	      0.00000000	     -0.00000000	      0.00000000	     -8.49099142	     -4.00000000	     90.00000000	      0.00000000	      0.00000000	      0.00000000	      0.00000000	   -183.79328610	     -0.24263318	     -0.87988747	    284.39833244	   -126.27382961	     -9.98216392	    287.88675719	   -129.55417325	    -23.90146491	    207.85988812	      0.00350891	      0.00371194	    -33.42140792	     -0.00000000	      0.00000000	      0.00000000	      0.00000000	     -0.00000000	      0.00000000	    -33.41734787	      0.00000000	     -0.00000000	     -0.00000000	      0.00000000	      0.00000000	     -0.00000000	      0.00000000	      0.14586373	      0.22321893	      0.12991922	      0.00000000	      0.14561039	      0.00000000	      0.04507978	      0.50581294	      0.07176134	      0.00000000	      0.12478122	      0.00000000	      0.08008855	      0.23321380	      0.05579209	      0.07937723	      0.06357113	      0.95487742	      0.09163493	      0.11030866	      0.12544053	      0.09150364	      0.15743259	      0.00000000	      0.14554102	      0.22321859	      0.12954725	      0.00000000	      0.14560629	      0.00000000	      0.04521074	      0.50581294	      0.07213999	      0.00000000	      0.12525073	      0.00000000	      0.07973744	      0.23321383	      0.05568755	      0.07623714	      0.06377718	      0.95487478	      0.09163538	      0.11030866	      0.12544093	      0.09150364	      0.15743304
      0.08230916	    -60.24439777	     -0.03039133	      0.63624305	    120.52572180	    -84.66074870	     18.41143965	    120.72225404	    -85.64166667	     18.16412915	     32.47000406	      0.00025437	      0.00029375	     -8.50734272	     -4.00000000	     90.00000000	      0.00000000	      0.00000000	     -0.00000000	      0.00000000	     -8.50703338	     -4.00000000	     90.00000000	      0.00000000	      0.00000000	      0.00000000	      0.00000000	   -168.47117863	     -0.23276736	     -0.87447714	    271.52079669	   -130.20924389	    -11.53677767	    274.90839773	   -133.30440165	    -21.61608802	    188.52622102	      0.00350414	      0.00371833	    -28.98229034	     -0.00000000	      0.00000000	     -0.00000000	      0.00000000	     -0.00000000	      0.00000000	    -28.97823927	      0.00000000	     -0.00000000	     -0.00000000	      0.00000000	      0.00000000	     -0.00000000	      0.00000000	      0.14586400	      0.22321924	      0.12989840	      0.00000000	      0.14560705	      0.00000000	      0.04522121	      0.50537627	      0.07173585	      0.00000000	      0.12481241	      0.00000000	      0.08006847	      0.23321434	      0.05577321	      0.07930768	      0.06358258	      0.95503238	      0.09152837	      0.11030869	      0.12552288	      0.09150365	      0.15748497	      0.00000000	      0.14554091	      0.22321892	      0.12952548	      0.00000000	      0.14560247	      0.00000000	      0.04533857	      0.50537627	      0.07211767	      0.00000000	      0.12528260	      0.00000000	      0.07971330	      0.23321437	      0.05566741	      0.07619283	      0.06379142	      0.95502980	      0.09152883	      0.11030869	      0.12552329	      0.09150365	      0.15748542
